<svg width="25" height="31" viewBox="0 0 25 31" fill="none" xmlns="http://www.w3.org/2000/svg">
<g clip-path="url(#clip0_5_385)">
<path d="M0 0.000171661V31H24.9999V0.000171661H0Z" fill="#214597"/>
<path d="M17.8969 20.1774C17.4567 20.176 15.9446 20.2665 14.6246 21.4842C14.6246 21.4842 13.2145 22.604 13.2145 24.617C13.2145 24.617 13.0752 26.3347 14.6257 27.7651C14.6257 27.7651 15.8628 29.065 18.0232 29.065C18.0232 29.065 19.9427 29.1386 21.4322 27.7644C21.4322 27.7644 22.8448 26.5619 22.8448 24.617C22.8448 24.617 22.9435 22.8723 21.4365 21.4819C21.4365 21.4819 20.2205 20.1811 18.0232 20.1811C18.0232 20.1811 17.9785 20.1777 17.897 20.1774H17.8969ZM17.9296 22.2924C17.9897 22.293 18.0232 22.2966 18.0232 22.2966C19.1665 22.2966 19.8107 22.9818 19.8107 22.9818C20.5555 23.6688 20.5451 24.617 20.5451 24.617C20.5451 25.6416 19.8084 26.2665 19.8084 26.2665C19.0311 26.9837 18.0232 26.9434 18.0232 26.9434C16.8995 26.9434 16.2472 26.2693 16.2472 26.2693C15.4369 25.522 15.5079 24.617 15.5079 24.617C15.5079 23.5803 16.2448 22.9789 16.2448 22.9789C16.9136 22.3422 17.6696 22.2897 17.9296 22.2924ZM6.86682 20.1774C6.42651 20.176 4.91432 20.2665 3.59431 21.4842C3.59431 21.4842 2.1844 22.604 2.1844 24.617C2.1844 24.617 2.04485 26.3347 3.59553 27.7651C3.59553 27.7651 4.83271 29.065 6.99314 29.065C6.99314 29.065 8.91242 29.1386 10.402 27.7644C10.402 27.7644 11.8146 26.5619 11.8146 24.617C11.8146 24.617 11.9134 22.8723 10.4063 21.4819C10.4063 21.4819 9.19034 20.1811 6.99316 20.1811C6.99316 20.1811 6.94838 20.1777 6.86682 20.1774ZM6.89957 22.2924C6.95958 22.293 6.99316 22.2966 6.99316 22.2966C8.13638 22.2966 8.78062 22.9818 8.78062 22.9818C9.52541 23.6688 9.51495 24.617 9.51495 24.617C9.51495 25.6416 8.77833 26.2665 8.77833 26.2665C8.00083 26.9837 6.99316 26.9434 6.99316 26.9434C5.86918 26.9434 5.21688 26.2694 5.21688 26.2694C4.40674 25.522 4.47756 24.617 4.47756 24.617C4.47756 23.5803 5.21456 22.9789 5.21456 22.9789C5.8834 22.3422 6.63955 22.2897 6.89957 22.2924ZM13.7429 2.146V10.1546H22.3567V2.146H13.7429ZM16.0331 4.03999H20.1165V8.25987H16.0331V4.03999Z" fill="white"/>
<path d="M14.6364 17.5316V15.6373H16.903V14.6039H14.6364V12.7095H16.903V11.1192H19.17V19.2678H16.903V17.5316H14.6364ZM10.3917 13.9388V15.8333H8.12471V19.2678H5.85819V11.1192H8.12471V13.9388H10.3917ZM12.6612 10.2608H9.76129L6.99906 6.04331L4.23676 10.2608H1.33691L5.83396 3.48219V1.75014H8.16107V3.48219L12.6612 10.2608Z" fill="white"/>
</g>
<defs>
<clipPath id="clip0_5_385">
<rect width="25" height="31" fill="white"/>
</clipPath>
</defs>
</svg>
